<?xml version="1.0" encoding="utf-8"?>
<!-- Generator: Adobe Illustrator 27.8.1, SVG Export Plug-In . SVG Version: 6.00 Build 0)  -->
<svg version="1.1" id="artwork" xmlns="http://www.w3.org/2000/svg" xmlns:xlink="http://www.w3.org/1999/xlink" x="0px" y="0px"
	 viewBox="0 0 239 70.9" style="enable-background:new 0 0 239 70.9;" xml:space="preserve">
<style type="text/css">
	.st0{fill:#31A450;}
	.st1{fill:#FFFFFF;}
</style>
<g>
	<path class="st0" d="M8.8,0h221.4c4.9,0,8.9,4,8.9,8.9V62c0,4.9-4,8.9-8.9,8.9H8.8c-4.9,0-8.9-4-8.9-8.9V8.9C-0.1,4,3.9,0,8.8,0z"
		/>
	<g>
		<path class="st1" d="M71.5,44.2V27.3h5c1.5,0,2.8,0.3,4,1c1.2,0.7,2.1,1.6,2.7,2.8c0.6,1.2,1,2.6,1,4.2v0.8c0,1.6-0.3,3-1,4.2
			c-0.6,1.2-1.5,2.1-2.7,2.8c-1.2,0.7-2.5,1-4.1,1H71.5z M74.4,29.7v12.2h1.9c1.5,0,2.7-0.5,3.5-1.4c0.8-1,1.2-2.3,1.3-4.1v-0.9
			c0-1.8-0.4-3.2-1.2-4.2c-0.8-1-2-1.4-3.5-1.4H74.4z"/>
		<path class="st1" d="M86.2,37.8c0-1.2,0.2-2.3,0.7-3.3c0.5-1,1.2-1.7,2.1-2.3c0.9-0.5,1.9-0.8,3-0.8c1.7,0,3.1,0.5,4.1,1.6
			c1.1,1.1,1.6,2.5,1.7,4.3l0,0.7c0,1.2-0.2,2.3-0.7,3.3c-0.5,1-1.2,1.7-2,2.3c-0.9,0.5-1.9,0.8-3.1,0.8c-1.8,0-3.2-0.6-4.3-1.8
			c-1.1-1.2-1.6-2.8-1.6-4.7V37.8z M89,38.1c0,1.3,0.3,2.3,0.8,3c0.5,0.7,1.3,1.1,2.2,1.1c1,0,1.7-0.4,2.2-1.1
			c0.5-0.7,0.8-1.8,0.8-3.3c0-1.3-0.3-2.3-0.8-3c-0.5-0.7-1.3-1.1-2.2-1.1c-0.9,0-1.7,0.4-2.2,1.1C89.3,35.5,89,36.6,89,38.1z"/>
		<path class="st1" d="M111.3,40.3l2-8.7h2.7l-3.4,12.5h-2.3l-2.7-8.6l-2.6,8.6h-2.3l-3.4-12.5h2.7l2,8.6l2.6-8.6h2.1L111.3,40.3z"
			/>
		<path class="st1" d="M120.5,31.7l0.1,1.4c0.9-1.1,2.1-1.7,3.7-1.7c2.6,0,3.9,1.5,4,4.5v8.3h-2.8v-8.1c0-0.8-0.2-1.4-0.5-1.8
			c-0.3-0.4-0.9-0.6-1.7-0.6c-1.1,0-2,0.5-2.5,1.5v8.9h-2.8V31.7H120.5z"/>
		<path class="st1" d="M134.1,44.2h-2.8V26.4h2.8V44.2z"/>
		<path class="st1" d="M136.7,37.8c0-1.2,0.2-2.3,0.7-3.3c0.5-1,1.2-1.7,2.1-2.3c0.9-0.5,1.9-0.8,3-0.8c1.7,0,3.1,0.5,4.1,1.6
			c1.1,1.1,1.6,2.5,1.7,4.3l0,0.7c0,1.2-0.2,2.3-0.7,3.3c-0.5,1-1.2,1.7-2,2.3c-0.9,0.5-1.9,0.8-3.1,0.8c-1.8,0-3.2-0.6-4.3-1.8
			c-1.1-1.2-1.6-2.8-1.6-4.7V37.8z M139.5,38.1c0,1.3,0.3,2.3,0.8,3c0.5,0.7,1.3,1.1,2.2,1.1c1,0,1.7-0.4,2.2-1.1
			c0.5-0.7,0.8-1.8,0.8-3.3c0-1.3-0.3-2.3-0.8-3c-0.5-0.7-1.3-1.1-2.2-1.1c-0.9,0-1.7,0.4-2.2,1.1C139.8,35.5,139.5,36.6,139.5,38.1
			z"/>
		<path class="st1" d="M158.2,44.2c-0.1-0.2-0.2-0.6-0.3-1.2c-0.9,0.9-2,1.4-3.3,1.4c-1.3,0-2.3-0.4-3.1-1.1s-1.2-1.6-1.2-2.7
			c0-1.3,0.5-2.4,1.5-3.1c1-0.7,2.4-1.1,4.3-1.1h1.7v-0.8c0-0.6-0.2-1.2-0.5-1.6c-0.4-0.4-0.9-0.6-1.7-0.6c-0.6,0-1.2,0.2-1.6,0.5
			c-0.4,0.3-0.6,0.7-0.6,1.2h-2.8c0-0.7,0.2-1.3,0.7-1.9c0.5-0.6,1.1-1.1,1.9-1.4c0.8-0.3,1.7-0.5,2.6-0.5c1.5,0,2.6,0.4,3.5,1.1
			c0.9,0.7,1.3,1.8,1.3,3.1v5.7c0,1.1,0.2,2,0.5,2.7v0.2H158.2z M155.1,42.2c0.6,0,1.1-0.1,1.6-0.4c0.5-0.3,0.9-0.6,1.1-1.1v-2.4
			h-1.5c-1,0-1.8,0.2-2.4,0.5c-0.5,0.4-0.8,0.9-0.8,1.5c0,0.5,0.2,1,0.5,1.3C154,42,154.5,42.2,155.1,42.2z"/>
		<path class="st1" d="M163,37.9c0-1.9,0.4-3.5,1.3-4.7c0.9-1.2,2.1-1.8,3.6-1.8c1.3,0,2.4,0.5,3.2,1.4v-6.4h2.8v17.8h-2.6l-0.1-1.3
			c-0.8,1-2,1.5-3.4,1.5c-1.5,0-2.7-0.6-3.6-1.8C163.5,41.5,163,39.9,163,37.9z M165.9,38.1c0,1.3,0.2,2.3,0.7,3s1.2,1.1,2.1,1.1
			c1.2,0,2-0.5,2.5-1.5v-5.4c-0.5-1-1.4-1.5-2.5-1.5c-0.9,0-1.6,0.4-2.1,1.1C166.1,35.6,165.9,36.6,165.9,38.1z"/>
		<path class="st1" d="M192.6,40.3h-6.5l-1.4,3.9h-3.1l6.4-16.9h2.6l6.4,16.9H194L192.6,40.3z M186.9,37.9h4.9l-2.4-7L186.9,37.9z"
			/>
		<path class="st1" d="M201.9,38v6.3H199V27.3h6.5c1.9,0,3.4,0.5,4.5,1.5c1.1,1,1.7,2.3,1.7,3.9c0,1.7-0.5,2.9-1.6,3.9
			c-1.1,0.9-2.6,1.4-4.6,1.4H201.9z M201.9,35.6h3.5c1,0,1.8-0.2,2.4-0.7c0.5-0.5,0.8-1.2,0.8-2.1c0-0.9-0.3-1.6-0.8-2.2
			c-0.6-0.5-1.3-0.8-2.3-0.8h-3.6V35.6z"/>
		<path class="st1" d="M219,36.9l-1.9,2v5.3h-2.9V27.3h2.9v7.9l1.6-2l4.9-5.9h3.5l-6.3,7.5l6.6,9.4h-3.5L219,36.9z"/>
	</g>
	<g>
		<path class="st1" d="M47.6,30.4c6.5,3.6,11,10.2,11.7,18H13.5c0.7-7.8,5.1-14.4,11.7-18l-3.8-6.6c-0.1-0.1-0.1-0.3-0.1-0.4
			c0-0.4,0.4-0.8,0.8-0.8c0.3,0,0.6,0.2,0.7,0.4l3.9,6.7c2.6-1.2,7-2.1,9.8-2.1c2.8,0,7.2,0.9,9.8,2.1L50,23
			c0.1-0.2,0.4-0.4,0.7-0.4c0.4,0,0.8,0.4,0.8,0.8c0,0.1-0.1,0.3-0.1,0.4L47.6,30.4z M25.8,41.8c1.1,0,1.9-0.9,1.9-1.9
			c0-1.1-0.9-1.9-1.9-1.9c-1.1,0-1.9,0.9-1.9,1.9C23.9,41,24.8,41.8,25.8,41.8z M46.9,41.8c1.1,0,1.9-0.9,1.9-1.9
			c0-1.1-0.9-1.9-1.9-1.9S45,38.9,45,39.9C45,41,45.8,41.8,46.9,41.8z"/>
	</g>
</g>
</svg>
